<?xml version="1.0" encoding="utf-8"?>
<!-- Generator: Adobe Illustrator 18.1.1, SVG Export Plug-In . SVG Version: 6.00 Build 0)  -->
<svg version="1.1" id="Layer_1" xmlns="http://www.w3.org/2000/svg" xmlns:xlink="http://www.w3.org/1999/xlink" x="0px" y="0px"
	 viewBox="0 0 100 100" enable-background="new 0 0 100 100" xml:space="preserve">
<rect fill="#51DAD0" width="100" height="100"/>
<path fill="#FFFFFF" d="M62,45.1l-0.5-0.9c-0.6-1-1.8-1.3-2.7-0.7l-8.8,5l-8.8-5.1c-1-0.6-2.2-0.2-2.7,0.7l-0.5,1
	c-0.6,1-0.2,2.2,0.7,2.7l8.8,5.1v10.4c0,1.1,0.9,2,2,2h1c1.1,0,2-0.9,2-2V52.9l8.8-5.1C62.2,47.3,62.6,46,62,45.1z"/>
<path fill="#FFFFFF" d="M50.5,82.5h-1c-1.1,0-2-0.9-2-2v-11c0-1.1,0.9-2,2-2h1c1.1,0,2,0.9,2,2v11C52.5,81.6,51.6,82.5,50.5,82.5z"
	/>
<path fill="#FFFFFF" d="M37.1,38.8l0.5-0.9c0.6-1,0.2-2.2-0.7-2.7l-8.8-5.1V20c0-1.1-0.9-2-2-2h-1c-1.1,0-2,0.9-2,2v10.1l-9,5.2
	c-1,0.6-1.3,1.8-0.7,2.7l0.5,0.9c0.6,1,1.8,1.3,2.7,0.7l9-5.2l8.8,5.1C35.3,40.1,36.6,39.8,37.1,38.8z"/>
<path fill="#FFFFFF" d="M26,53.1h-1c-1.1,0-2-0.9-2-2v-11c0-1.1,0.9-2,2-2h1c1.1,0,2,0.9,2,2v11C28,52.2,27.1,53.1,26,53.1z"/>
<path fill="#FFFFFF" d="M87.1,38.8l0.5-0.9c0.6-1,0.2-2.2-0.7-2.7l-8.8-5.1V20c0-1.1-0.9-2-2-2h-1c-1.1,0-2,0.9-2,2v10.1l-9,5.2
	c-1,0.6-1.3,1.8-0.7,2.7l0.5,0.9c0.6,1,1.8,1.3,2.7,0.7l9-5.2l8.8,5.1C85.3,40.1,86.6,39.8,87.1,38.8z"/>
<path fill="#FFFFFF" d="M76,53.1h-1c-1.1,0-2-0.9-2-2v-11c0-1.1,0.9-2,2-2h1c1.1,0,2,0.9,2,2v11C78,52.2,77.1,53.1,76,53.1z"/>
</svg>
