<?xml version="1.0" encoding="utf-8"?>
<!-- Generator: Adobe Illustrator 18.1.1, SVG Export Plug-In . SVG Version: 6.00 Build 0)  -->
<svg version="1.1" id="Layer_1" xmlns="http://www.w3.org/2000/svg" xmlns:xlink="http://www.w3.org/1999/xlink" x="0px" y="0px"
	 viewBox="0 0 100 100" enable-background="new 0 0 100 100" xml:space="preserve">
<rect x="25.9" y="29.1" fill="#E8F409" width="48.1" height="48.1"/>
<rect fill="#1FB9EF" width="100" height="100"/>
<rect x="27.1" y="26" fill="#9FE75C" width="45.7" height="48.1"/>
<g>
	<path fill="#FFFFFF" d="M57.6,45.3l-5.5-9.5c-0.4-0.8-1.3-1.1-2.1-1c-0.8-0.2-1.7,0.2-2.1,1l-5.5,9.5c-0.6,1-0.2,2.2,0.7,2.7
		l0.9,0.5c1,0.6,2.2,0.2,2.7-0.7l3.3-5.7l3.3,5.7c0.6,1,1.8,1.3,2.7,0.7l0.9-0.5C57.8,47.4,58.2,46.2,57.6,45.3z"/>
	<g>
		<path fill="#FFFFFF" d="M38.7,52.1l-5.5,9.5c-0.4,0.8-0.3,1.7,0.2,2.3c0.3,0.8,1,1.3,1.9,1.3l11,0c1.1,0,2-0.9,2-2v-1
			c0-1.1-0.9-2-2-2l-6.5,0l3.3-5.7c0.6-1,0.2-2.2-0.7-2.7l-0.9-0.5C40.5,50.8,39.3,51.1,38.7,52.1z"/>
		<path fill="#FFFFFF" d="M53.7,65.3l11,0c0.9,0,1.6-0.6,1.9-1.3c0.5-0.6,0.7-1.5,0.2-2.3l-5.5-9.5c-0.6-1-1.8-1.3-2.7-0.7l-0.9,0.5
			c-1,0.6-1.3,1.8-0.7,2.7l3.3,5.7l-6.5,0c-1.1,0-2,0.9-2,2l0,1C51.7,64.4,52.5,65.3,53.7,65.3z"/>
	</g>
</g>
<path fill="#9FE75C" d="M72.9,21.1v1c0,1.1-0.9,2-2,2H29.1c-1.1,0-2-0.9-2-2v-1c0-1.1,0.9-2,2-2h41.7C72,19.1,72.9,20,72.9,21.1z"/>
</svg>
