<?xml version="1.0" encoding="utf-8"?>
<!-- Generator: Adobe Illustrator 18.1.1, SVG Export Plug-In . SVG Version: 6.00 Build 0)  -->
<svg version="1.1" id="Layer_1" xmlns="http://www.w3.org/2000/svg" xmlns:xlink="http://www.w3.org/1999/xlink" x="0px" y="0px"
	 viewBox="0 0 100 100" enable-background="new 0 0 100 100" xml:space="preserve">
<rect fill="#54CEB2" width="100" height="100"/>
<path fill="#9FE75C" d="M62,42l-0.5-0.9c-0.6-1-1.8-1.3-2.7-0.7L50,45.5l-8.8-5.1c-1-0.6-2.2-0.2-2.7,0.7L38,42
	c-0.6,1-0.2,2.2,0.7,2.7l8.8,5.1v10.4c0,1.1,0.9,2,2,2h1c1.1,0,2-0.9,2-2V49.8l8.8-5.1C62.2,44.2,62.6,43,62,42z"/>
<path fill="#E8F409" d="M57.5,67.1v1c0,1.1-0.9,2-2,2h-11c-1.1,0-2-0.9-2-2v-1c0-1.1,0.9-2,2-2h11C56.6,65.1,57.5,66,57.5,67.1z"/>
<path fill="#E8F409" d="M57.5,72.9v1c0,1.1-0.9,2-2,2h-11c-1.1,0-2-0.9-2-2v-1c0-1.1,0.9-2,2-2h11C56.6,70.9,57.5,71.8,57.5,72.9z"
	/>
<path fill="#E8F409" d="M57.5,78.8v1c0,1.1-0.9,2-2,2h-11c-1.1,0-2-0.9-2-2v-1c0-1.1,0.9-2,2-2h11C56.6,76.8,57.5,77.7,57.5,78.8z"
	/>
<path fill="none" stroke="#E8F409" stroke-width="4" stroke-miterlimit="10" d="M68.9,37.2c0,10.5-8.5,24.9-18.9,24.9
	S31.1,47.6,31.1,37.2s8.4-19,18.9-19S68.9,26.7,68.9,37.2z"/>
</svg>
