<?xml version="1.0" encoding="utf-8"?>
<!-- Generator: Adobe Illustrator 18.1.1, SVG Export Plug-In . SVG Version: 6.00 Build 0)  -->
<svg version="1.1" id="Layer_1" xmlns="http://www.w3.org/2000/svg" xmlns:xlink="http://www.w3.org/1999/xlink" x="0px" y="0px"
	 viewBox="0 0 100 100" enable-background="new 0 0 100 100" xml:space="preserve">
<rect fill="#9FE75C" width="100" height="100"/>
<g>
	<g>
		<path fill="#FFFFFF" d="M23.4,55.8h-1c-1.1,0-2-0.9-2-2v-11c0-1.1,0.9-2,2-2h1c1.1,0,2,0.9,2,2v11C25.4,54.9,24.5,55.8,23.4,55.8z
			"/>
		<path fill="#FFFFFF" d="M17.2,32.7l5.7-5.7l5.7,5.7c0.8,0.8,2,0.8,2.8,0l0.7-0.7c0.8-0.8,0.8-2,0-2.8L25,22.1l-0.7-0.7
			c-0.8-0.8-2-0.8-2.8,0l-0.7,0.7l-7.1,7.1c-0.8,0.8-0.8,2,0,2.8l0.7,0.7C15.2,33.5,16.4,33.5,17.2,32.7z"/>
		<path fill="#FFFFFF" d="M17.2,40.2l5.7-5.7l5.7,5.7c0.8,0.8,2,0.8,2.8,0l0.7-0.7c0.8-0.8,0.8-2,0-2.8L25,29.6l-0.7-0.7
			c-0.8-0.8-2-0.8-2.8,0l-0.7,0.7l-7.1,7.1c-0.8,0.8-0.8,2,0,2.8l0.7,0.7C15.2,41,16.4,41,17.2,40.2z"/>
		<path fill="#FFFFFF" d="M17.2,47.7l5.7-5.7l5.7,5.7c0.8,0.8,2,0.8,2.8,0l0.7-0.7c0.8-0.8,0.8-2,0-2.8L25,37.1l-0.7-0.7
			c-0.8-0.8-2-0.8-2.8,0l-0.7,0.7l-7.1,7.1c-0.8,0.8-0.8,2,0,2.8l0.7,0.7C15.2,48.5,16.4,48.5,17.2,47.7z"/>
	</g>
	<g>
		<path fill="#FFFFFF" d="M41.5,79.9h-1c-1.1,0-2-0.9-2-2v-11c0-1.1,0.9-2,2-2h1c1.1,0,2,0.9,2,2v11C43.5,79,42.6,79.9,41.5,79.9z"
			/>
		<path fill="#FFFFFF" d="M35.3,56.8l5.7-5.7l5.7,5.7c0.8,0.8,2,0.8,2.8,0l0.7-0.7c0.8-0.8,0.8-2,0-2.8l-7.1-7.1l-0.7-0.7
			c-0.8-0.8-2-0.8-2.8,0l-0.7,0.7l-7.1,7.1c-0.8,0.8-0.8,2,0,2.8l0.7,0.7C33.3,57.6,34.5,57.6,35.3,56.8z"/>
		<path fill="#FFFFFF" d="M35.3,64.3l5.7-5.7l5.7,5.7c0.8,0.8,2,0.8,2.8,0l0.7-0.7c0.8-0.8,0.8-2,0-2.8l-7.1-7.1L42.4,53
			c-0.8-0.8-2-0.8-2.8,0l-0.7,0.7l-7.1,7.1c-0.8,0.8-0.8,2,0,2.8l0.7,0.7C33.3,65.1,34.5,65.1,35.3,64.3z"/>
		<path fill="#FFFFFF" d="M35.3,71.8l5.7-5.7l5.7,5.7c0.8,0.8,2,0.8,2.8,0l0.7-0.7c0.8-0.8,0.8-2,0-2.8l-7.1-7.1l-0.7-0.7
			c-0.8-0.8-2-0.8-2.8,0l-0.7,0.7l-7.1,7.1c-0.8,0.8-0.8,2,0,2.8l0.7,0.7C33.3,72.6,34.5,72.6,35.3,71.8z"/>
	</g>
	<g>
		<path fill="#FFFFFF" d="M59.5,54.4h-1c-1.1,0-2-0.9-2-2v-11c0-1.1,0.9-2,2-2h1c1.1,0,2,0.9,2,2v11C61.5,53.5,60.6,54.4,59.5,54.4z
			"/>
		<path fill="#FFFFFF" d="M53.4,31.3l5.7-5.7l5.7,5.7c0.8,0.8,2,0.8,2.8,0l0.7-0.7c0.8-0.8,0.8-2,0-2.8l-7.1-7.1L60.5,20
			c-0.8-0.8-2-0.8-2.8,0L57,20.7l-7.1,7.1c-0.8,0.8-0.8,2,0,2.8l0.7,0.7C51.3,32.1,52.6,32.1,53.4,31.3z"/>
		<path fill="#FFFFFF" d="M53.4,38.8l5.7-5.7l5.7,5.7c0.8,0.8,2,0.8,2.8,0l0.7-0.7c0.8-0.8,0.8-2,0-2.8l-7.1-7.1l-0.7-0.7
			c-0.8-0.8-2-0.8-2.8,0L57,28.2l-7.1,7.1c-0.8,0.8-0.8,2,0,2.8l0.7,0.7C51.3,39.6,52.6,39.6,53.4,38.8z"/>
		<path fill="#FFFFFF" d="M53.4,46.3l5.7-5.7l5.7,5.7c0.8,0.8,2,0.8,2.8,0l0.7-0.7c0.8-0.8,0.8-2,0-2.8l-7.1-7.1L60.5,35
			c-0.8-0.8-2-0.8-2.8,0L57,35.7l-7.1,7.1c-0.8,0.8-0.8,2,0,2.8l0.7,0.7C51.3,47.1,52.6,47.1,53.4,46.3z"/>
	</g>
	<g>
		<path fill="#FFFFFF" d="M77.6,80.6h-1c-1.1,0-2-0.9-2-2v-11c0-1.1,0.9-2,2-2h1c1.1,0,2,0.9,2,2v11C79.6,79.7,78.7,80.6,77.6,80.6z
			"/>
		<path fill="#FFFFFF" d="M71.5,57.5l5.7-5.7l5.7,5.7c0.8,0.8,2,0.8,2.8,0l0.7-0.7c0.8-0.8,0.8-2,0-2.8l-7.1-7.1l-0.7-0.7
			c-0.8-0.8-2-0.8-2.8,0L75,46.9L67.9,54c-0.8,0.8-0.8,2,0,2.8l0.7,0.7C69.4,58.3,70.7,58.3,71.5,57.5z"/>
		<path fill="#FFFFFF" d="M71.5,65l5.7-5.7l5.7,5.7c0.8,0.8,2,0.8,2.8,0l0.7-0.7c0.8-0.8,0.8-2,0-2.8l-7.1-7.1l-0.7-0.7
			c-0.8-0.8-2-0.8-2.8,0L75,54.4l-7.1,7.1c-0.8,0.8-0.8,2,0,2.8l0.7,0.7C69.4,65.8,70.7,65.8,71.5,65z"/>
		<path fill="#FFFFFF" d="M71.5,72.5l5.7-5.7l5.7,5.7c0.8,0.8,2,0.8,2.8,0l0.7-0.7c0.8-0.8,0.8-2,0-2.8l-7.1-7.1l-0.7-0.7
			c-0.8-0.8-2-0.8-2.8,0L75,61.9L67.9,69c-0.8,0.8-0.8,2,0,2.8l0.7,0.7C69.4,73.3,70.7,73.3,71.5,72.5z"/>
	</g>
</g>
</svg>
