<?xml version="1.0" encoding="utf-8"?>
<!-- Generator: Adobe Illustrator 18.1.1, SVG Export Plug-In . SVG Version: 6.00 Build 0)  -->
<svg version="1.1" id="Capa_1" xmlns="http://www.w3.org/2000/svg" xmlns:xlink="http://www.w3.org/1999/xlink" x="0px" y="0px"
	 viewBox="0 40 109.9 21.5" enable-background="new 0 40 109.9 21.5" xml:space="preserve">
<path fill="#51DAD0" d="M18.9,44.8l-5.5-3.2c-0.2-0.1-0.4-0.2-0.7-0.2c-0.2,0-0.5,0-0.7,0.2l-5.5,3.2c-0.6,0.3-0.7,1-0.4,1.6
	l0.3,0.5c0.3,0.6,1,0.7,1.6,0.4l3.3-1.9v3.8c0,0.6,0.5,1.2,1.2,1.2h0.6c0.6,0,1.2-0.5,1.2-1.2v-3.8l3.3,1.9c0.6,0.3,1.3,0.1,1.6-0.4
	l0.3-0.5C19.7,45.8,19.5,45.1,18.9,44.8z"/>
<path fill="#51DAD0" d="M18.9,49.8l-5.5-3.2c-0.2-0.1-0.4-0.2-0.7-0.2c-0.2,0-0.5,0-0.7,0.2l-5.5,3.2c-0.6,0.3-0.7,1-0.4,1.6
	l0.3,0.5c0.3,0.6,1,0.7,1.6,0.4l3.3-1.9v3.8c0,0.6,0.5,1.2,1.2,1.2h0.6c0.6,0,1.2-0.5,1.2-1.2v-3.8l3.3,1.9c0.6,0.3,1.3,0.1,1.6-0.4
	l0.3-0.5C19.7,50.8,19.5,50.1,18.9,49.8z"/>
<path fill="#51DAD0" d="M18.9,54.8l-5.5-3.2c-0.2-0.1-0.4-0.2-0.7-0.2c-0.2,0-0.5,0-0.7,0.2l-5.5,3.2c-0.6,0.3-0.7,1-0.4,1.6
	l0.3,0.5c0.3,0.6,1,0.7,1.6,0.4l3.3-1.9v3.8c0,0.6,0.5,1.2,1.2,1.2h0.6c0.6,0,1.2-0.5,1.2-1.2v-3.8l3.3,1.9c0.6,0.3,1.3,0.1,1.6-0.4
	l0.3-0.5C19.7,55.8,19.5,55.1,18.9,54.8z"/>
<rect x="24.7" y="44.1" fill="none" width="109.8" height="13"/>
<text transform="matrix(1 0 0 1 24.6704 54.1608)"><tspan x="0" y="0" fill="#51DAD0" font-family="'ProximaNovaSoft-Semibold'" font-size="15">E</tspan><tspan x="9.1" y="0" fill="#51DAD0" font-family="'ProximaNovaSoft-Semibold'" font-size="15">A</tspan><tspan x="19.3" y="0" fill="#51DAD0" font-family="'ProximaNovaSoft-Semibold'" font-size="15">RTH D</tspan><tspan x="62.8" y="0" fill="#51DAD0" font-family="'ProximaNovaSoft-Semibold'" font-size="15" letter-spacing="-1">A</tspan><tspan x="70.9" y="0" fill="#51DAD0" font-family="'ProximaNovaSoft-Semibold'" font-size="15">Y</tspan></text>
<text transform="matrix(1 0 0 1 25.67 59.8717)"><tspan x="0" y="0" fill="#51DAD0" font-family="'ProximaNovaSoft-Bold'" font-size="6.3461">2</tspan><tspan x="3.9" y="0" fill="#51DAD0" font-family="'ProximaNovaSoft-Bold'" font-size="6.3461">0</tspan><tspan x="7.9" y="0" fill="#51DAD0" font-family="'ProximaNovaSoft-Bold'" font-size="6.3461">1</tspan><tspan x="10.6" y="0" fill="#51DAD0" font-family="'ProximaNovaSoft-Bold'" font-size="6.3461">5</tspan></text>
</svg>
